<svg width="733" height="812" viewBox="0 0 733 812" fill="none" xmlns="http://www.w3.org/2000/svg">
<path d="M406.9 811.4C405.5 811.2 401 810.5 396.9 809.9C392.8 809.3 388.9 808.5 388.3 808.1C387.6 807.7 388.6 801.1 391.4 788L395.6 768.6L403.5 767.4C429.5 763.6 453.3 743.5 461.2 718.5C463.4 711.8 503 524.8 502.5 524.2C502.2 524 499.1 525.6 495.6 527.8C465.3 547 427 557 395.6 554.1C364.4 551.1 340.9 540.3 321.5 519.9C303.9 501.4 294.5 480.2 291.7 452.5C290 435.3 291.5 425.7 306.9 353C322 281.9 322.5 278.4 319 267.1C316.4 258.8 312.8 253 307 247.7C287.6 230.3 256.1 233 230.6 254.3C221.8 261.6 212.5 275.7 209.4 286.4C208 291.4 154.9 540.4 154.9 542.1C154.9 542.6 161.9 543 170.5 543H186.1L185.6 545.3C185.3 546.5 184.7 549.2 184.4 551.3L183.7 555H91.8H0L0.599998 551.8C0.899998 550 1.5 547.4 1.9 546L2.50001 543.5L18.2 543.2C31.9 543 33.8 542.7 34.3 541.2C34.6 540.3 59.8 421.8 90.4 278C120.9 134.2 146.1 15.5 146.4 14.2L146.9 12H131.4C114.1 12 115 12.5 117 4.39999L118.1 0H194.1H270.1L269.5 2.39999C266.8 13.2 232 179.4 232.3 179.8C232.6 180 235.7 178.4 239.2 176.2C268.1 158 306.2 147.4 335.4 149.5C368 151.9 393.4 163.2 413.4 184.1C430.9 202.5 440.3 223.9 443 251.5C444.7 269.1 443.3 278.3 428.2 348.9C420.4 385.4 414.4 415.9 414.1 420.4C411.7 459.2 450.6 479.8 488.9 459.9C504 452.1 514.6 441.1 522 425.5C525.5 418.1 527.9 407.4 552.4 292C567.1 223 579.5 164.4 580.1 161.8L581.1 157H657H733L732.3 160.8C731.9 162.8 731.3 165.6 730.9 167L730.3 169.5L714.6 169.8C700.9 170 699 170.3 698.5 171.8C698.2 172.7 674.1 286 644.9 423.5C612.8 575 590.5 677.8 588.4 684.5C573.9 730.1 538.1 770.9 492.9 793.5C476.7 801.5 462.8 806.3 445.9 809.5C437.7 811 412 812.3 406.9 811.4V811.4Z" fill="#B72C31"/>
</svg>
